<svg width="49" height="49" viewBox="0 0 49 49" fill="none" xmlns="http://www.w3.org/2000/svg">
<g clip-path="url(#clip0_121_3477)">
<path d="M36.6855 48.0006H12.3453C5.84109 48.0006 0.567627 42.7271 0.567627 36.2212V11.8811C0.567627 5.37685 5.84109 0.103394 12.3453 0.103394H36.6855C43.1897 0.103394 48.4631 5.37685 48.4631 11.8811V36.2212C48.4648 42.7271 43.1913 48.0006 36.6855 48.0006Z" fill="black"/>
<path d="M20.4702 20.488V19.04C19.9677 18.9606 19.4602 18.9171 18.9515 18.9101C14.0269 18.9002 9.66826 22.0906 8.18906 26.7865C6.70986 31.4824 8.45561 36.5963 12.4967 39.4083C8.25652 34.8703 8.49839 27.754 13.0364 23.5138C15.0584 21.6262 17.7047 20.5491 20.4702 20.488Z" fill="#25F4EE"/>
<path d="M20.7433 36.8826C23.4961 36.8793 25.7585 34.7107 25.8802 31.9596V7.41543H30.3639C30.2722 6.90287 30.2287 6.38285 30.2339 5.86218H24.1016V30.3817C23.9996 33.146 21.7306 35.336 18.9647 35.3409C18.1387 35.3343 17.3242 35.1303 16.592 34.7486C17.0668 35.4063 17.6904 35.9425 18.4118 36.3133C19.1333 36.6842 19.9322 36.8793 20.7433 36.8826ZM38.7373 15.7427V14.3787C37.087 14.3787 35.4728 13.8917 34.0989 12.9785C35.3033 14.3798 36.9317 15.3503 38.7373 15.7427Z" fill="#25F4EE"/>
<path d="M34.1006 12.9801C32.7462 11.4384 31.9998 9.45608 32.0011 7.40393H30.3639C30.5747 8.53868 31.0148 9.61849 31.6573 10.5773C32.2998 11.5361 33.1312 12.3537 34.1006 12.9801ZM18.9515 25.0441C16.1083 25.0589 13.8146 27.3756 13.8294 30.2188C13.8341 31.1522 14.0924 32.0667 14.5767 32.8646C15.061 33.6624 15.753 34.3137 16.5789 34.7486C14.9154 32.4516 15.4287 29.2398 17.7257 27.5747C18.6033 26.939 19.6597 26.5975 20.7433 26.599C21.2583 26.6056 21.77 26.6862 22.262 26.8376V20.5966C21.7602 20.5209 21.2518 20.4815 20.7433 20.4782H20.4702V25.2235C19.9749 25.0885 19.4632 25.0293 18.9515 25.0441Z" fill="#FE2C55"/>
<path d="M38.7373 15.7428V20.4881C35.6824 20.4822 32.7069 19.5151 30.2323 17.7238V30.1909C30.2191 36.4121 25.1727 41.4487 18.9515 41.4487C16.6411 41.4531 14.3863 40.7402 12.4983 39.4084C16.7319 43.9612 23.8548 44.2211 28.4092 39.9875C29.5422 38.9344 30.4459 37.659 31.0639 36.2409C31.6819 34.8229 32.0009 33.2927 32.0011 31.7458V19.3133C34.4842 21.0919 37.4631 22.0462 40.5176 22.0413V15.9337C39.9187 15.9304 39.323 15.8678 38.7373 15.7428Z" fill="#FE2C55"/>
<path d="M30.2323 30.1925V17.7254C32.7147 19.5055 35.6941 20.4599 38.7488 20.4535V15.7082C36.9442 15.3267 35.3124 14.3693 34.0989 12.9801C33.13 12.3532 32.299 11.5354 31.6565 10.5767C31.0141 9.61801 30.5737 8.53846 30.3623 7.40393H25.8786V31.9597C25.7618 34.8012 23.3661 37.0093 20.5245 36.8942C19.7471 36.8626 18.987 36.6552 18.3013 36.2876C17.6156 35.92 17.0222 35.4016 16.5657 34.7716C14.0499 33.4471 13.0841 30.334 14.4086 27.8182C14.8433 26.9922 15.4945 26.3 16.2924 25.8156C17.0903 25.3313 18.005 25.0731 18.9384 25.0688C19.4534 25.0737 19.9651 25.1527 20.457 25.3057V20.4897C14.2474 20.595 9.29805 25.7862 9.40335 31.9959C9.45099 34.808 10.5505 37.5002 12.4852 39.5416C14.3917 40.8294 16.6496 41.4966 18.9499 41.4519C25.1727 41.4502 30.2191 36.4137 30.2323 30.1925Z" fill="white"/>
</g>
<defs>
<clipPath id="clip0_121_3477">
<rect width="48" height="47.904" fill="white" transform="translate(0.567627 0.0999756)"/>
</clipPath>
</defs>
</svg>
