<svg width="48" height="49" viewBox="0 0 48 49" fill="none" xmlns="http://www.w3.org/2000/svg">
<path d="M47.5676 24.0876C47.5676 10.8462 37.0095 0.0999756 24 0.0999756C10.9905 0.0999756 0.432373 10.8462 0.432373 24.0876C0.432373 36.0691 9.04875 46.0001 20.335 47.7788V31.0048H14.3157V24.0876H20.335V18.801C20.335 12.7979 23.8301 9.46282 29.2184 9.46282C31.7911 9.46282 34.461 9.9569 34.461 9.9569V15.8118H31.4999C28.563 15.8118 27.6407 17.6893 27.6407 19.5668V24.0629H34.194L33.1503 30.9801H27.6407V47.7541C38.9512 46.0001 47.5676 36.0691 47.5676 24.0876Z" fill="#1877F2"/>
<path d="M33.1745 31.0295L34.2182 24.1124H27.6649V19.6162C27.6649 17.714 28.6115 15.8612 31.5241 15.8612H34.4852V9.98163C34.4852 9.98163 31.8153 9.48755 29.2425 9.48755C23.8543 9.48755 20.3592 12.8226 20.3592 18.8257V24.1124H14.3398V31.0295H20.3592V47.8036C21.5485 48.0012 22.7863 48.1 24.0242 48.1C25.262 48.1 26.4999 48.0012 27.6892 47.8036V31.0295H33.1745Z" fill="white"/>
</svg>
