<svg width="49" height="49" viewBox="0 0 49 49" fill="none" xmlns="http://www.w3.org/2000/svg">
<g clip-path="url(#clip0_121_3470)">
<path d="M24.5676 0.0999756C11.3126 0.0999756 0.567566 10.845 0.567566 24.1C0.567566 37.3549 11.3126 48.1 24.5676 48.1C37.8225 48.1 48.5676 37.3549 48.5676 24.1C48.5676 10.845 37.8225 0.0999756 24.5676 0.0999756Z" fill="#40B3E0"/>
<path d="M36.2456 13.9057L31.9588 35.5186C31.9588 35.5186 31.3594 37.0175 29.7107 36.298L19.8186 28.714L16.2216 26.9755L10.1664 24.937C10.1664 24.937 9.23719 24.6074 9.14719 23.888C9.05719 23.1685 10.1964 22.7789 10.1964 22.7789L34.2669 13.3364C34.2669 13.3364 36.2454 12.4672 36.2454 13.906" fill="white"/>
<path d="M19.0584 35.2755C19.0584 35.2755 18.7697 35.2485 18.4097 34.1093C18.0502 32.9702 16.2216 26.9751 16.2216 26.9751L30.7599 17.7426C30.7599 17.7426 31.5994 17.233 31.5694 17.7426C31.5694 17.7426 31.7192 17.8326 31.2694 18.2522C30.8199 18.672 19.8487 28.534 19.8487 28.534" fill="#D2E5F1"/>
<path d="M23.6115 31.6215L19.6989 35.1889C19.6989 35.1889 19.3929 35.421 19.0584 35.2755L19.8077 28.6493" fill="#B5CFE4"/>
</g>
<defs>
<clipPath id="clip0_121_3470">
<rect width="48" height="48" fill="white" transform="translate(0.567566 0.0999756)"/>
</clipPath>
</defs>
</svg>
