<svg width="89" height="85" viewBox="0 0 89 85" fill="none" xmlns="http://www.w3.org/2000/svg">
<g clip-path="url(#clip0_121_2969)">
<path d="M0 24.6C0 11.3451 10.7452 0.599976 24 0.599976H65C78.2548 0.599976 89 11.3451 89 24.6V60.6C89 73.8548 78.2548 84.6 65 84.6H24C10.7452 84.6 0 73.8548 0 60.6V24.6Z" fill="#C8E0F6"/>
<g clip-path="url(#clip1_121_2969)">
<path fill-rule="evenodd" clip-rule="evenodd" d="M30.1531 61.5336C44.3709 60.4761 55.5979 47.8058 55.5979 32.331C55.5979 20.391 48.914 10.1205 39.3295 5.56581C40.8257 5.25983 42.3654 5.10022 43.9374 5.10022C58.4707 5.10022 70.2523 18.7429 70.2523 35.5719C70.2523 52.401 58.4707 66.0436 43.9374 66.0436C38.8832 66.0436 34.1619 64.3937 30.1531 61.5336Z" fill="#002F65"/>
<path fill-rule="evenodd" clip-rule="evenodd" d="M41.5313 49.9725C49.9644 46.7334 55.9502 38.5579 55.9502 28.9844C55.9502 16.5717 45.8877 6.50928 33.4751 6.50928C21.0624 6.50928 11 16.5717 11 28.9844C11 33.2441 12.1851 37.2271 14.2435 40.6216C12.2721 43.9642 11.141 47.8616 11.141 52.0231C11.141 58.2611 13.6824 63.9056 17.7862 67.9776C15.5382 72.0547 14.2411 76.8586 14.2411 82.0017C14.2411 96.7684 24.9344 108.739 38.1253 108.739C45.8581 108.739 43.966 104.487 41.0762 97.9935C39.0366 93.4102 36.5 87.71 36.5 81.6C36.5 79.0882 36.7314 76.6689 37.0843 74.3833C42.5858 73.9321 42.3274 72.0638 41.661 67.2442C41.3695 65.1366 41 62.4646 41 59.1C41 56.3137 41.2534 53.2892 41.506 50.2739C41.5144 50.1734 41.5229 50.0729 41.5313 49.9725Z" fill="#002249"/>
<path fill-rule="evenodd" clip-rule="evenodd" d="M55.9499 34.6206C55.9499 44.3275 49.3783 52.7714 42.8091 57.1038C44.1604 61.9218 47.0816 65.5424 50.6344 66.584C50.7017 67.2716 50.7364 67.9731 50.7364 68.6856C50.7364 72.0315 49.9706 75.1348 48.6636 77.6904C49.7642 80.0761 50.3842 82.7736 50.3842 85.6299C50.3842 95.3577 43.1922 103.244 34.3205 103.244C25.4488 103.244 18.2568 95.3577 18.2568 85.6299C18.2568 77.5813 23.1802 70.7936 29.9048 68.69C31.1768 66.2076 31.9633 63.1558 32.0567 59.8405C24.9383 57.8071 16.918 47.2896 16.918 34.6206C16.918 20.4959 25.1934 9.04553 36.5749 9.04553C47.9564 9.04553 55.9499 20.4959 55.9499 34.6206Z" fill="white"/>
<ellipse cx="34.3205" cy="85.6301" rx="16.0637" ry="17.6137" fill="#FF4E64"/>
<ellipse cx="31.0799" cy="81.7549" rx="9.93413" ry="8.66594" fill="white"/>
<path d="M30.8686 30.0214C30.8178 31.0266 30.6113 31.9481 30.3598 32.8121C26.844 33.3358 23.3839 33.4522 19.9874 33.1267C19.6902 32.1911 19.525 31.158 19.525 30.0709C19.525 29.0861 19.6606 28.1456 19.907 27.2817C23.2503 26.3512 26.7306 26.2676 30.3052 26.9477C30.8674 27.9016 30.9217 28.9693 30.8686 30.0214Z" fill="#FFFCFC" stroke="#201A1C" stroke-width="0.563639"/>
<mask id="mask0_121_2969" style="mask-type:alpha" maskUnits="userSpaceOnUse" x="19" y="26" width="13" height="8">
<path d="M30.8686 29.951C30.8258 30.7967 30.6758 31.2667 30.4727 31.9027C30.4372 32.014 30.4 32.1305 30.3615 32.2549C26.8446 32.7788 23.3833 32.8953 19.9858 32.5696C19.6846 31.6707 19.525 31.0729 19.525 30.0004C19.525 29.0791 19.6412 28.7003 19.8711 27.9514C19.8823 27.9151 19.8937 27.878 19.9053 27.8399C23.2518 26.9083 26.7778 26.8156 30.4114 27.5348C30.6872 27.9882 30.8092 28.3222 30.8618 28.6507C30.9172 28.9962 30.8993 29.3483 30.873 29.8632C30.8716 29.8919 30.8701 29.9212 30.8686 29.951Z" fill="white" stroke="#201A1C" stroke-width="0.563639"/>
</mask>
<g mask="url(#mask0_121_2969)">
<circle cx="25.634" cy="29.8358" r="3.48751" fill="url(#paint0_radial_121_2969)"/>
<g opacity="0.9">
<circle cx="23.3648" cy="28.5265" r="0.528411" fill="white"/>
<circle opacity="0.8" cx="24.3866" cy="29.2662" r="0.281819" fill="white"/>
</g>
</g>
<path d="M47.7777 30.0214C47.727 31.0266 47.5205 31.9481 47.269 32.8121C43.7532 33.3358 40.2931 33.4522 36.8966 33.1267C36.5994 32.1911 36.4342 31.158 36.4342 30.0709C36.4342 29.0861 36.5698 28.1456 36.8162 27.2817C40.1595 26.3512 43.6397 26.2676 47.2144 26.9477C47.7765 27.9016 47.8309 28.9693 47.7777 30.0214Z" fill="#FFFCFC" stroke="#201A1C" stroke-width="0.563639"/>
<mask id="mask1_121_2969" style="mask-type:alpha" maskUnits="userSpaceOnUse" x="36" y="26" width="13" height="8">
<path d="M47.7777 29.951C47.735 30.7967 47.585 31.2667 47.3819 31.9027C47.3463 32.014 47.3091 32.1305 47.2706 32.2549C43.7537 32.7788 40.2925 32.8953 36.895 32.5696C36.5938 31.6707 36.4342 31.0729 36.4342 30.0004C36.4342 29.0791 36.5504 28.7003 36.7803 27.9514C36.7914 27.9151 36.8028 27.878 36.8145 27.8399C40.161 26.9083 43.687 26.8156 47.3206 27.5348C47.5964 27.9882 47.7184 28.3222 47.771 28.6507C47.8264 28.9962 47.8084 29.3483 47.7822 29.8632C47.7807 29.8919 47.7793 29.9212 47.7777 29.951Z" fill="white" stroke="#201A1C" stroke-width="0.563639"/>
</mask>
<g mask="url(#mask1_121_2969)">
<circle cx="42.5432" cy="29.8358" r="3.48751" fill="url(#paint1_radial_121_2969)"/>
<g opacity="0.9">
<circle cx="40.274" cy="28.5265" r="0.528411" fill="white"/>
<circle opacity="0.8" cx="41.2957" cy="29.2662" r="0.281819" fill="white"/>
</g>
</g>
<path d="M19.8774 25.7435C21.0291 24.8597 22.4704 24.3344 24.0343 24.3344C27.8087 24.3344 30.8684 25.5975 30.8684 29.3719C30.8684 31.4589 29.9877 34.4094 28.7547 37.0867" stroke="#201A1C" stroke-width="0.563639" stroke-linecap="round"/>
<path fill-rule="evenodd" clip-rule="evenodd" d="M42.8809 5.09998C37.9043 5.09998 33.2379 6.65722 29.2168 9.37878C31.3814 22.4365 42.2587 32.366 55.3514 32.366C60.421 32.366 65.1585 30.8772 69.1867 28.2945C65.8963 14.8988 55.3646 5.09998 42.8809 5.09998ZM75.2509 75.6349C76.3852 68.0797 74.4903 59.8852 69.3516 53.0659C67.3282 50.3808 64.9612 48.1204 62.3725 46.3059C62.0229 48.3849 62.1038 50.7736 62.5944 53.3423C60.9189 51.854 59.0934 51.0365 57.1832 51.0365C53.8825 51.0365 50.8349 53.4774 48.3765 57.6017C45.2258 59.0133 41.8223 62.129 39.1773 66.362C38.4202 67.5736 37.7726 68.8009 37.2365 70.0166C39.2419 69.5734 41.1865 68.7504 42.9581 67.5776C41.9781 69.0392 41.0871 70.6953 40.3391 72.5012C39.7923 73.8211 39.3562 75.1385 39.0281 76.4259C40.4852 75.8383 41.8706 75.0374 43.1369 74.0446C42.6733 77.2722 42.4229 80.7158 42.4229 84.2912C42.4229 102.657 49.0313 117.546 57.1832 117.546C65.3351 117.546 71.9435 102.657 71.9435 84.2912C71.9435 79.2736 71.4503 74.5156 70.5671 70.2499L70.581 70.2683C72.0591 72.2299 73.63 74.0254 75.2509 75.6349Z" fill="#002F65"/>
<ellipse cx="54.8934" cy="85.2777" rx="8.24321" ry="16.5569" fill="#FF4E64"/>
<path d="M41.5271 46.3878C41.5967 46.3059 41.5938 46.1847 41.5203 46.1063C41.4468 46.0278 41.326 46.0171 41.2398 46.0813C40.8478 46.3733 40.2471 46.5809 39.5023 46.7328C38.7621 46.8838 37.9049 46.9752 37.0172 47.0501C36.6935 47.0774 36.3648 47.1026 36.0369 47.1276C35.4713 47.1709 34.908 47.214 34.3765 47.2677C33.5715 47.3489 32.8191 47.456 32.211 47.6307C31.3537 47.2226 30.8251 47.0898 30.3935 46.9814C30.3066 46.9596 30.2236 46.9387 30.1427 46.9168C29.6729 46.7897 29.2436 46.6221 28.3938 45.94C28.3262 45.8858 28.2324 45.8783 28.1571 45.9211C28.0818 45.9638 28.0402 46.0483 28.0521 46.134C28.2761 47.7406 28.7534 49.1091 29.6711 50.0281C30.5978 50.9561 31.9399 51.3931 33.8156 51.2051C37.4617 50.8396 39.4098 48.8763 41.5271 46.3878Z" fill="#FF4E64" stroke="#111111" stroke-width="0.422729" stroke-linejoin="round"/>
<path d="M28.2615 46.1753C28.5903 47.3261 29.917 49.381 32.6297 49.381C36.9274 49.381 40.1331 47.373 41.507 46.1753" stroke="#111111" stroke-width="0.281819"/>
<circle cx="42.3879" cy="45.2242" r="0.457956" fill="#111111"/>
<path d="M26.6764 74.4277C28.5787 72.6663 29.286 71.539 29.9526 68.7208L35.6974 64.8458C38.633 65.0572 38.4776 68.7208 43.5152 67.3117C39.9572 72.5959 38.9708 75.3788 40.3799 77.9152L36.4724 76.5413L29.286 77.2811C28.4171 75.6372 25.3309 75.6736 26.6764 74.4277Z" fill="white"/>
<path d="M40.9055 86.6358C40.5438 86.0797 44.9753 87.6926 37.6499 87.6926C37.9513 88.7493 30.1137 89.528 28.1844 89.528C27.2801 88.9162 27.0513 85.5791 29.0887 82.0752C31.1261 78.5712 35.6001 76.569 41.207 74.8448C43.6479 74.8448 39.2425 77.3532 41.207 78.5156C42.2017 84.0218 40.9055 86.6358 40.9055 86.6358Z" fill="#FF4E64"/>
<path d="M42.5989 79.2538L32.8057 78.9719C32.8057 78.9719 34.4614 76.5412 37.6318 75.2026C40.8023 73.864 43.3034 74.0049 43.3034 74.0049L42.5989 79.2538Z" fill="#FF4E64"/>
<path d="M62.443 46.3062C61.3778 52.6419 64.3108 61.8538 70.6516 70.2684" stroke="#260C00" stroke-width="0.563639"/>
<path opacity="0.1" d="M25.6831 80.351C26.2949 79.4333 27.8856 77.4143 29.3539 76.6802" stroke="#FF4E64" stroke-width="0.917695" stroke-linecap="round"/>
</g>
</g>
<defs>
<radialGradient id="paint0_radial_121_2969" cx="0" cy="0" r="1" gradientUnits="userSpaceOnUse" gradientTransform="translate(25.6545 30.0412) rotate(-81.7976) scale(4.30052)">
<stop offset="0.352057" stop-color="#011F00"/>
<stop offset="0.778477" stop-color="#00593E"/>
</radialGradient>
<radialGradient id="paint1_radial_121_2969" cx="0" cy="0" r="1" gradientUnits="userSpaceOnUse" gradientTransform="translate(42.5637 30.006) rotate(-43.1913) scale(4.73517)">
<stop offset="0.472219" stop-color="#011F00"/>
<stop offset="0.760961" stop-color="#00593E"/>
</radialGradient>
<clipPath id="clip0_121_2969">
<path d="M0 24.6C0 11.3451 10.7452 0.599976 24 0.599976H65C78.2548 0.599976 89 11.3451 89 24.6V60.6C89 73.8548 78.2548 84.6 65 84.6H24C10.7452 84.6 0 73.8548 0 60.6V24.6Z" fill="white"/>
</clipPath>
<clipPath id="clip1_121_2969">
<rect width="65" height="80" fill="white" transform="translate(11 5.09998)"/>
</clipPath>
</defs>
</svg>
